<svg width="35" height="35" viewBox="0 0 35 35" fill="none" xmlns="http://www.w3.org/2000/svg">
<rect x="1" y="1" width="33" height="33" rx="9" fill="#BAFFB4" stroke="#E2E8F0" stroke-width="2"/>
<path d="M16 24.2526C16 23.9667 16.0563 23.6835 16.1657 23.4194C16.2752 23.1552 16.4356 22.9152 16.6377 22.713C16.8399 22.5108 17.08 22.3504 17.3441 22.241C17.6083 22.1315 17.8915 22.0752 18.1774 22.0752C18.4633 22.0752 18.7465 22.1315 19.0106 22.241C19.2748 22.3504 19.5148 22.5108 19.717 22.713C19.9192 22.9152 20.0796 23.1552 20.189 23.4194C20.2985 23.6835 20.3548 23.9667 20.3548 24.2526C20.3548 24.8301 20.1254 25.3839 19.717 25.7923C19.3087 26.2006 18.7549 26.43 18.1774 26.43C17.5999 26.43 17.0461 26.2006 16.6377 25.7923C16.2294 25.3839 16 24.8301 16 24.2526ZM16.2134 11.1774C16.1844 10.9027 16.2135 10.625 16.2987 10.3622C16.384 10.0995 16.5236 9.85763 16.7083 9.65232C16.8931 9.447 17.119 9.28283 17.3713 9.17045C17.6237 9.05807 17.8968 9 18.173 9C18.4493 9 18.7224 9.05807 18.9747 9.17045C19.2271 9.28283 19.4529 9.447 19.6377 9.65232C19.8225 9.85763 19.9621 10.0995 20.0473 10.3622C20.1326 10.625 20.1617 10.9027 20.1327 11.1774L19.3706 18.8135C19.3396 19.1095 19.2001 19.3836 18.979 19.5829C18.7578 19.7821 18.4707 19.8923 18.173 19.8923C17.8754 19.8923 17.5883 19.7821 17.3671 19.5829C17.146 19.3836 17.0064 19.1095 16.9755 18.8135L16.2134 11.1774Z" fill="#1E293B"/>
</svg>
