<svg width="35" height="35" viewBox="0 0 35 35" fill="none" xmlns="http://www.w3.org/2000/svg">
<rect x="1" y="1" width="33" height="33" rx="9" fill="#FF6363" stroke="#E2E8F0" stroke-width="2"/>
<path fill-rule="evenodd" clip-rule="evenodd" d="M10 24.2496C10 23.9638 10.0563 23.6807 10.1657 23.4166C10.2751 23.1524 10.4355 22.9124 10.6376 22.7103C10.8398 22.5082 11.0798 22.3478 11.3439 22.2384C11.608 22.129 11.8911 22.0727 12.177 22.0727C12.4628 22.0727 12.7459 22.129 13.0101 22.2384C13.2742 22.3478 13.5142 22.5082 13.7163 22.7103C13.9185 22.9124 14.0788 23.1524 14.1882 23.4166C14.2976 23.6807 14.3539 23.9638 14.3539 24.2496C14.3539 24.827 14.1246 25.3807 13.7163 25.789C13.3081 26.1973 12.7543 26.4266 12.177 26.4266C11.5996 26.4266 11.0459 26.1973 10.6376 25.789C10.2294 25.3807 10 24.827 10 24.2496ZM10.2133 11.177C10.1844 10.9023 10.2134 10.6247 10.2987 10.362C10.3839 10.0993 10.5235 9.85747 10.7082 9.65219C10.893 9.44692 11.1188 9.28277 11.3711 9.17042C11.6234 9.05806 11.8964 9 12.1726 9C12.4488 9 12.7219 9.05806 12.9741 9.17042C13.2264 9.28277 13.4523 9.44692 13.637 9.65219C13.8218 9.85747 13.9613 10.0993 14.0465 10.362C14.1318 10.6247 14.1609 10.9023 14.1319 11.177L13.3699 18.8116C13.339 19.1076 13.1995 19.3816 12.9784 19.5808C12.7573 19.78 12.4702 19.8902 12.1726 19.8902C11.875 19.8902 11.588 19.78 11.3668 19.5808C11.1457 19.3816 11.0062 19.1076 10.9753 18.8116L10.2133 11.177ZM15.5731 24.2497C15.5731 23.9638 15.6294 23.6807 15.7388 23.4166C15.8482 23.1525 16.0085 22.9125 16.2107 22.7103C16.4128 22.5082 16.6528 22.3478 16.917 22.2384C17.1811 22.129 17.4642 22.0727 17.75 22.0727C18.0359 22.0727 18.319 22.129 18.5831 22.2384C18.8473 22.3478 19.0872 22.5082 19.2894 22.7103C19.4915 22.9125 19.6519 23.1525 19.7613 23.4166C19.8707 23.6807 19.927 23.9638 19.927 24.2497C19.927 24.827 19.6976 25.3808 19.2894 25.789C18.8811 26.1973 18.3274 26.4266 17.75 26.4266C17.1727 26.4266 16.619 26.1973 16.2107 25.789C15.8024 25.3808 15.5731 24.827 15.5731 24.2497ZM15.7864 11.177C15.7574 10.9024 15.7865 10.6247 15.8718 10.362C15.957 10.0993 16.0965 9.8575 16.2813 9.65222C16.466 9.44695 16.6919 9.28281 16.9442 9.17045C17.1964 9.05809 17.4695 9.00003 17.7457 9.00003C18.0219 9.00003 18.2949 9.05809 18.5472 9.17045C18.7995 9.28281 19.0253 9.44695 19.2101 9.65222C19.3948 9.8575 19.5344 10.0993 19.6196 10.362C19.7049 10.6247 19.7339 10.9024 19.705 11.177L18.943 18.8116C18.9121 19.1076 18.7726 19.3816 18.5515 19.5808C18.3303 19.78 18.0433 19.8903 17.7457 19.8903C17.4481 19.8903 17.161 19.78 16.9399 19.5808C16.7188 19.3816 16.5793 19.1076 16.5484 18.8116L15.7864 11.177ZM21.3118 23.4166C21.2024 23.6807 21.1461 23.9638 21.1461 24.2497C21.1461 24.827 21.3755 25.3808 21.7837 25.789C22.192 26.1973 22.7457 26.4266 23.3231 26.4266C23.9004 26.4266 24.4542 26.1973 24.8624 25.789C25.2707 25.3808 25.5 24.827 25.5 24.2497C25.5 23.9638 25.4437 23.6807 25.3343 23.4166C25.2249 23.1525 25.0646 22.9125 24.8624 22.7103C24.6603 22.5082 24.4203 22.3478 24.1562 22.2384C23.892 22.129 23.609 22.0727 23.3231 22.0727C23.0372 22.0727 22.7541 22.129 22.49 22.2384C22.2259 22.3478 21.9859 22.5082 21.7837 22.7103C21.5816 22.9125 21.4212 23.1525 21.3118 23.4166ZM21.4448 10.362C21.3595 10.6247 21.3305 10.9024 21.3595 11.177L22.1214 18.8116C22.1523 19.1076 22.2918 19.3816 22.513 19.5808C22.7341 19.78 23.0211 19.8903 23.3187 19.8903C23.6163 19.8903 23.9034 19.78 24.1245 19.5808C24.3456 19.3816 24.4851 19.1076 24.5161 18.8116L25.278 11.177C25.307 10.9024 25.2779 10.6247 25.1927 10.362C25.1074 10.0993 24.9679 9.8575 24.7831 9.65222C24.5984 9.44695 24.3725 9.28281 24.1203 9.17045C23.868 9.05809 23.5949 9.00003 23.3187 9.00003C23.0426 9.00003 22.7695 9.05809 22.5172 9.17045C22.2649 9.28281 22.0391 9.44695 21.8543 9.65222C21.6696 9.8575 21.53 10.0993 21.4448 10.362Z" fill="#1E293B"/>
</svg>
