<svg width="35" height="35" viewBox="0 0 35 35" fill="none" xmlns="http://www.w3.org/2000/svg">
<rect x="1" y="1" width="33" height="33" rx="9" fill="#FFFDA2" stroke="#E2E8F0" stroke-width="2"/>
<path fill-rule="evenodd" clip-rule="evenodd" d="M13.1657 23.4194C13.0563 23.6835 13 23.9667 13 24.2526C13 24.8301 13.2294 25.3839 13.6377 25.7923C14.0461 26.2006 14.5999 26.43 15.1774 26.43C15.7549 26.43 16.3087 26.2006 16.717 25.7923C17.1254 25.3839 17.3548 24.8301 17.3548 24.2526C17.3548 23.9667 17.2985 23.6835 17.189 23.4194C17.0796 23.1552 16.9192 22.9152 16.717 22.713C16.5148 22.5108 16.2748 22.3504 16.0106 22.241C15.7465 22.1315 15.4633 22.0752 15.1774 22.0752C14.8915 22.0752 14.6083 22.1315 14.3441 22.241C14.08 22.3504 13.8399 22.5108 13.6377 22.713C13.4356 22.9152 13.2752 23.1552 13.1657 23.4194ZM13.2987 10.3622C13.2135 10.625 13.1844 10.9027 13.2134 11.1774L13.9755 18.8135C14.0064 19.1095 14.146 19.3836 14.3671 19.5829C14.5883 19.7821 14.8754 19.8923 15.173 19.8923C15.4707 19.8923 15.7578 19.7821 15.979 19.5829C16.2001 19.3836 16.3396 19.1095 16.3706 18.8135L17.1327 11.1774C17.1617 10.9027 17.1326 10.625 17.0473 10.3622C16.9621 10.0995 16.8225 9.85763 16.6377 9.65232C16.4529 9.447 16.2271 9.28283 15.9747 9.17045C15.7224 9.05807 15.4493 9 15.173 9C14.8968 9 14.6237 9.05807 14.3713 9.17045C14.119 9.28283 13.8931 9.447 13.7083 9.65232C13.5236 9.85763 13.384 10.0995 13.2987 10.3622ZM18.7399 23.4194C18.6304 23.6835 18.5741 23.9667 18.5741 24.2526C18.5741 24.8301 18.8035 25.3839 19.2119 25.7923C19.6202 26.2006 20.174 26.43 20.7515 26.43C21.329 26.43 21.8828 26.2006 22.2912 25.7923C22.6995 25.3839 22.9289 24.8301 22.9289 24.2526C22.9289 23.9667 22.8726 23.6835 22.7632 23.4194C22.6537 23.1552 22.4933 22.9152 22.2912 22.713C22.089 22.5108 21.8489 22.3504 21.5848 22.241C21.3206 22.1315 21.0374 22.0752 20.7515 22.0752C20.4656 22.0752 20.1824 22.1315 19.9183 22.241C19.6541 22.3504 19.414 22.5108 19.2119 22.713C19.0097 22.9152 18.8493 23.1552 18.7399 23.4194ZM18.8729 10.3622C18.7876 10.625 18.7585 10.9027 18.7875 11.1774L19.5496 18.8135C19.5806 19.1095 19.7201 19.3836 19.9412 19.5829C20.1624 19.7821 20.4495 19.8923 20.7472 19.8923C21.0448 19.8923 21.3319 19.7821 21.5531 19.5829C21.7742 19.3836 21.9138 19.1095 21.9447 18.8135L22.7068 11.1774C22.7358 10.9027 22.7067 10.625 22.6214 10.3622C22.5362 10.0995 22.3966 9.85763 22.2118 9.65232C22.0271 9.447 21.8012 9.28283 21.5488 9.17045C21.2965 9.05807 21.0234 9 20.7472 9C20.4709 9 20.1978 9.05807 19.9455 9.17045C19.6931 9.28283 19.4672 9.447 19.2825 9.65232C19.0977 9.85763 18.9581 10.0995 18.8729 10.3622Z" fill="#1E293B"/>
</svg>
